<?xml version="1.0" encoding="UTF-8"?><svg id="Ebene_1" xmlns="http://www.w3.org/2000/svg" viewBox="0 0 459.95953 434.00426"><defs><style>.cls-1{letter-spacing:-.01001em;}.cls-2{font-size:10px;}.cls-2,.cls-3,.cls-4{fill:#db1f11;font-family:PoiretOne-Regular, 'Poiret One';}.cls-5{letter-spacing:-.05498em;}.cls-6{letter-spacing:.00996em;}.cls-7{fill:none;stroke:#db1f11;stroke-miterlimit:10;}.cls-4,.cls-8{font-size:12px;}.cls-9{font-size:11px;letter-spacing:.00009em;}</style></defs><circle class="cls-7" cx="212.24012" cy="150.15143" r="95.30579"/><g><line class="cls-7" x1="212.24035" y1="23.15892" x2="212.24035" y2="45.96258"/><line class="cls-7" x1="415.6113" y1="150.13688" x2="316.30891" y2="150.13688"/><line class="cls-7" x1="410.73718" y1="265.21092" x2="302.35033" y2="202.63366"/><line class="cls-7" x1="333.1454" y1="359.51139" x2="264.39106" y2="240.42529"/><line class="cls-7" x1="37.91268" y1="150.13688" x2="107.95359" y2="150.13687"/><line class="cls-7" x1="89.37589" y1="79.43115" x2="121.55342" y2="98.00885"/><line class="cls-7" x1="159.78838" y1="59.30235" x2="149.61787" y2="41.68651"/><line class="cls-7" x1="55.47943" y1="240.89254" x2="121.74571" y2="202.63366"/><line class="cls-7" x1="92.96104" y1="357.4613" x2="160.50284" y2="240.47538"/><line class="cls-7" x1="212.24035" y1="387.72009" x2="212.24012" y2="255.01352"/><line class="cls-7" x1="285.54467" y1="23.15892" x2="264.39106" y2="59.79791"/><line class="cls-7" x1="404.27269" y1="39.00318" x2="302.35033" y2="97.84802"/></g><g><text class="cls-3" transform="translate(166.87512 147.16474)"><tspan class="cls-8"><tspan x="0" y="0">S</tspan><tspan class="cls-1" x="6.02441" y="0">o</tspan><tspan x="12.50391" y="0">nnenstunden in </tspan></tspan><tspan class="cls-8" x="-1.8623" y="14.3999">Deutschland </tspan><tspan class="cls-9" x="62.15625" y="14.3999">2022</tspan></text><text class="cls-2" transform="translate(215.82281 45.96258)"><tspan class="cls-6" x="0" y="0">4</tspan><tspan x="5.12988" y="0">5</tspan></text><text class="cls-2" transform="translate(269.87771 63.53085)"><tspan x="0" y="0">85</tspan></text><text class="cls-2" transform="translate(304.26855 106.39449)"><tspan x="0" y="0">235</tspan></text><text class="cls-2" transform="translate(316.19695 163.44034)"><tspan x="0" y="0">195</tspan></text><text class="cls-2" transform="translate(294.64017 220.36896)"><tspan x="0" y="0">250</tspan></text><text class="cls-2" transform="translate(248.31624 255.76516)"><tspan x="0" y="0">275</tspan></text><text class="cls-2" transform="translate(190.55183 263.90133)"><tspan x="0" y="0">265</tspan></text><text class="cls-2" transform="translate(135.95582 245.45711)"><tspan x="0" y="0">2</tspan><tspan class="cls-5" x="6.37012" y="0">7</tspan><tspan x="11.16992" y="0">0</tspan></text><text class="cls-2" transform="translate(103.22241 201.6337)"><tspan x="0" y="0">155</tspan></text><text class="cls-2" transform="translate(91.86087 145.65387)"><tspan x="0" y="0">140</tspan></text><text class="cls-2" transform="translate(114.63363 90.72)"><tspan x="0" y="0">75</tspan></text><text class="cls-2" transform="translate(160.47761 54.84586)"><tspan x="0" y="0">39</tspan></text><text class="cls-4" transform="translate(193.66981 77.05329) rotate(-13.20525)"><tspan x="0" y="0"> </tspan></text><text class="cls-4" transform="translate(196.16005 76.46784) rotate(-11.24939)"><tspan x="0" y="0"> </tspan></text><text class="cls-4" transform="translate(198.68104 75.9654) rotate(-9.28342)"><tspan x="0" y="0"> </tspan></text><text class="cls-4" transform="translate(201.16102 75.51618) rotate(-6.22114)"><tspan x="0" y="0">J</tspan></text><text class="cls-4" transform="translate(206.63124 74.89021) rotate(-1.62718)"><tspan x="0" y="0">a</tspan></text><text class="cls-4" transform="translate(213.30653 74.70222) rotate(3.17402)"><tspan x="0" y="0">n</tspan></text><text class="cls-4" transform="translate(219.52723 75.09724) rotate(6.47739)"><tspan x="0" y="0"> </tspan></text><text class="cls-4" transform="translate(222.09462 75.38776) rotate(8.43987)"><tspan x="0" y="0">	</tspan></text><text class="cls-4" transform="translate(235.50087 78.40583) rotate(18.96202)"><tspan x="0" y="0"> </tspan></text><text class="cls-4" transform="translate(237.92762 79.23835) rotate(20.92552)"><tspan x="0" y="0"> </tspan></text><text class="cls-4" transform="translate(240.31727 80.15046) rotate(22.88267)"><tspan x="0" y="0"> </tspan></text><text class="cls-4" transform="translate(242.67958 81.12165) rotate(25.53034)"><tspan x="0" y="0">F</tspan></text><text class="cls-4" transform="translate(246.58973 82.95612) rotate(29.40151)"><tspan x="0" y="0">e</tspan></text><text class="cls-4" transform="translate(251.65907 85.78278) rotate(34.15098)"><tspan x="0" y="0">b</tspan></text><text class="cls-4" transform="translate(257.20399 89.61774) rotate(37.64795)"><tspan x="0" y="0"> </tspan></text><text class="cls-4" transform="translate(259.24501 91.19001) rotate(39.59578)"><tspan x="0" y="0"> </tspan></text><text class="cls-4" transform="translate(261.22841 92.82917) rotate(41.54169)"><tspan x="0" y="0"> </tspan></text><text class="cls-4" transform="translate(263.15419 94.53474) rotate(43.48453)"><tspan x="0" y="0"> </tspan></text><text class="cls-4" transform="translate(265.0204 96.30329) rotate(45.42704)"><tspan x="0" y="0"> </tspan></text><text class="cls-4" transform="translate(266.80848 98.11482) rotate(47.34822)"><tspan x="0" y="0"> </tspan></text><text class="cls-4" transform="translate(268.55262 100.00642) rotate(49.29276)"><tspan x="0" y="0"> </tspan></text><text class="cls-4" transform="translate(270.29774 101.73689) rotate(54.34672)"><tspan x="0" y="0">M</tspan></text><text class="cls-4" transform="translate(276.54676 110.63044) rotate(60.98964)"><tspan x="0" y="0">ä</tspan></text><text class="cls-4" transform="translate(279.77626 116.55427) rotate(64.97203)"><tspan x="0" y="0">r</tspan></text><text class="cls-4" transform="translate(281.35341 119.95857) rotate(67.38146)"><tspan x="0" y="0"> </tspan></text><text class="cls-4" transform="translate(282.33876 122.32038) rotate(69.33884)"><tspan x="0" y="0"> </tspan></text><text class="cls-4" transform="translate(283.24696 124.72126) rotate(71.30333)"><tspan x="0" y="0"> </tspan></text><text class="cls-4" transform="translate(284.06532 127.13435) rotate(73.25453)"><tspan x="0" y="0"> </tspan></text><text class="cls-4" transform="translate(284.81141 129.6114) rotate(75.23789)"><tspan x="0" y="0"> </tspan></text><text class="cls-4" transform="translate(285.46766 132.09528) rotate(77.20353)"><tspan x="0" y="0"> </tspan></text><text class="cls-4" transform="translate(286.03309 134.58405) rotate(79.15482)"><tspan x="0" y="0"> </tspan></text><text class="cls-4" transform="translate(286.64247 136.97175) rotate(83.72753)"><tspan x="0" y="0">A</tspan></text><text class="cls-4" transform="translate(287.57508 146.46491) rotate(89.07059)"><tspan x="0" y="0">p</tspan></text><text class="cls-4" transform="translate(287.59852 153.07722) rotate(93.62554)"><tspan x="0" y="0">r</tspan></text><text class="cls-4" transform="translate(287.35243 156.8155) rotate(96.00174)"><tspan x="0" y="0"> </tspan></text><text class="cls-4" transform="translate(287.08192 159.38776) rotate(97.9663)"><tspan x="0" y="0"> </tspan></text><text class="cls-4" transform="translate(286.73231 161.90632) rotate(99.90266)"><tspan x="0" y="0"> </tspan></text><text class="cls-4" transform="translate(286.28798 164.45612) rotate(101.87965)"><tspan x="0" y="0"> </tspan></text><text class="cls-4" transform="translate(285.76551 166.94831) rotate(103.82546)"><tspan x="0" y="0"> </tspan></text><text class="cls-4" transform="translate(285.15321 169.43659) rotate(105.7883)"><tspan x="0" y="0"> </tspan></text><text class="cls-4" transform="translate(284.45204 171.92194) rotate(107.76511)"><tspan x="0" y="0"> </tspan></text><text class="cls-4" transform="translate(283.89149 174.32038) rotate(112.88202)"><tspan x="0" y="0">M</tspan></text><text class="cls-4" transform="translate(279.5663 184.2862) rotate(119.55343)"><tspan x="0" y="0">a</tspan></text><text class="cls-4" transform="translate(276.17469 190.14167) rotate(123.00964)"><tspan x="0" y="0">i</tspan></text><text class="cls-4" transform="translate(274.88466 192.1319) rotate(124.88105)"><tspan x="0" y="0"> </tspan></text><text class="cls-4" transform="translate(273.42762 194.22565) rotate(126.81287)"><tspan x="0" y="0"> </tspan></text><text class="cls-4" transform="translate(271.88466 196.28815) rotate(128.76068)"><tspan x="0" y="0"> </tspan></text><text class="cls-4" transform="translate(270.2743 198.29499) rotate(130.7063)"><tspan x="0" y="0"> </tspan></text><text class="cls-4" transform="translate(268.61512 200.22565) rotate(132.63014)"><tspan x="0" y="0"> </tspan></text><text class="cls-4" transform="translate(266.87294 202.12019) rotate(134.57348)"><tspan x="0" y="0"> </tspan></text><text class="cls-4" transform="translate(265.0702 203.95319) rotate(136.51652)"><tspan x="0" y="0"> </tspan></text><text class="cls-4" transform="translate(263.20399 205.7237) rotate(138.4583)"><tspan x="0" y="0"> </tspan></text><text class="cls-4" transform="translate(261.30067 207.41315) rotate(140.38234)"><tspan x="0" y="0"> </tspan></text><text class="cls-4" transform="translate(259.3163 209.05573) rotate(142.3306)"><tspan x="0" y="0"> </tspan></text><text class="cls-4" transform="translate(257.35438 210.62507) rotate(145.37698)"><tspan x="0" y="0">J</tspan></text><text class="cls-4" transform="translate(252.83583 213.7696) rotate(149.81948)"><tspan x="0" y="0">u</tspan></text><text class="cls-4" transform="translate(247.48719 216.88874) rotate(154.53431)"><tspan x="0" y="0">n</tspan></text><text class="cls-4" transform="translate(241.85438 219.51667) rotate(157.86346)"><tspan x="0" y="0"> </tspan></text><text class="cls-4" transform="translate(239.45594 220.49323) rotate(159.84425)"><tspan x="0" y="0"> </tspan></text><text class="cls-4" transform="translate(237.07118 221.37019) rotate(161.79136)"><tspan x="0" y="0"> </tspan></text><text class="cls-4" transform="translate(234.62196 222.17683) rotate(163.76706)"><tspan x="0" y="0"> </tspan></text><text class="cls-4" transform="translate(232.16298 222.8946) rotate(165.72789)"><tspan x="0" y="0"> </tspan></text><text class="cls-4" transform="translate(229.67079 223.52937) rotate(167.69528)"><tspan x="0" y="0"> </tspan></text><text class="cls-4" transform="translate(227.17567 224.07526) rotate(169.64674)"><tspan x="0" y="0"> </tspan></text><text class="cls-4" transform="translate(224.64735 224.53718) rotate(171.60548)"><tspan x="0" y="0"> </tspan></text><text class="cls-4" transform="translate(222.14442 224.95026) rotate(174.67565)"><tspan x="0" y="0">J</tspan></text><text class="cls-4" transform="translate(216.66883 225.48054) rotate(179.06927)"><tspan x="0" y="0">u</tspan></text><text class="cls-4" transform="translate(210.45546 225.53913) rotate(-177.43654)"><tspan x="0" y="0">l</tspan></text><text class="cls-4" transform="translate(207.24745 225.39069) rotate(-175.26305)"><tspan x="0" y="0"> </tspan></text><text class="cls-4" transform="translate(204.68788 225.17976) rotate(-173.32033)"><tspan x="0" y="0"> </tspan></text><text class="cls-4" transform="translate(202.15223 224.88386) rotate(-171.37987)"><tspan x="0" y="0"> </tspan></text><text class="cls-4" transform="translate(199.61366 224.50105) rotate(-169.42213)"><tspan x="0" y="0"> </tspan></text><text class="cls-4" transform="translate(197.10243 224.03327) rotate(-167.47316)"><tspan x="0" y="0"> </tspan></text><text class="cls-4" transform="translate(194.59266 223.47663) rotate(-165.50435)"><tspan x="0" y="0"> </tspan></text><text class="cls-4" transform="translate(192.11464 222.83796) rotate(-163.54464)"><tspan x="0" y="0"> </tspan></text><text class="cls-4" transform="translate(189.64198 222.10944) rotate(-161.57022)"><tspan x="0" y="0"> </tspan></text><text class="cls-4" transform="translate(187.20448 221.29792) rotate(-159.60339)"><tspan x="0" y="0"> </tspan></text><text class="cls-4" transform="translate(184.85585 220.58503) rotate(-155.01456)"><tspan x="0" y="0">A</tspan></text><text class="cls-4" transform="translate(176.24012 216.48444) rotate(-149.04107)"><tspan x="0" y="0">u</tspan></text><text class="cls-4" transform="translate(170.93397 213.32331) rotate(-144.15342)"><tspan x="0" y="0">g</tspan></text><text class="cls-4" transform="translate(165.48085 209.30769) rotate(-140.64018)"><tspan x="0" y="0"> </tspan></text><text class="cls-4" transform="translate(163.51161 207.69343) rotate(-138.71591)"><tspan x="0" y="0"> </tspan></text><text class="cls-4" transform="translate(161.57753 205.99714) rotate(-136.77291)"><tspan x="0" y="0"> </tspan></text><text class="cls-4" transform="translate(159.70253 204.23737) rotate(-134.82929)"><tspan x="0" y="0"> </tspan></text><text class="cls-4" transform="translate(157.88807 202.41315) rotate(-132.88719)"><tspan x="0" y="0"> </tspan></text><text class="cls-4" transform="translate(156.13661 200.52839) rotate(-130.94392)"><tspan x="0" y="0"> </tspan></text><text class="cls-4" transform="translate(154.4662 198.60749) rotate(-129.01973)"><tspan x="0" y="0"> </tspan></text><text class="cls-4" transform="translate(152.84462 196.60749) rotate(-127.0705)"><tspan x="0" y="0"> </tspan></text><text class="cls-4" transform="translate(151.29432 194.63874) rotate(-123.89163)"><tspan x="0" y="0">S</tspan></text><text class="cls-4" transform="translate(148.01454 189.76569) rotate(-119.4448)"><tspan x="0" y="0">e</tspan></text><text class="cls-4" transform="translate(145.13758 184.72468) rotate(-114.67889)"><tspan x="0" y="0">p</tspan></text><text class="cls-4" transform="translate(142.37782 178.57136) rotate(-111.14673)"><tspan x="0" y="0"> </tspan></text><text class="cls-4" transform="translate(141.45106 176.17976) rotate(-109.18312)"><tspan x="0" y="0"> </tspan></text><text class="cls-4" transform="translate(140.60438 173.74812) rotate(-107.21118)"><tspan x="0" y="0"> </tspan></text><text class="cls-4" transform="translate(139.84706 171.30866) rotate(-105.25425)"><tspan x="0" y="0"> </tspan></text><text class="cls-4" transform="translate(139.17079 168.83308) rotate(-103.28939)"><tspan x="0" y="0"> </tspan></text><text class="cls-4" transform="translate(138.57606 166.32331) rotate(-101.31814)"><tspan x="0" y="0"> </tspan></text><text class="cls-4" transform="translate(138.07216 163.81159) rotate(-99.3633)"><tspan x="0" y="0"> </tspan></text><text class="cls-4" transform="translate(137.50282 161.41901) rotate(-94.53196)"><tspan x="0" y="0">O</tspan></text><text class="cls-4" transform="translate(136.82411 151.17097) rotate(-89.07863)"><tspan x="0" y="0">k</tspan></text><text class="cls-4" transform="translate(136.91102 146.75105) rotate(-86.354)"><tspan x="0" y="0">t</tspan></text><text class="cls-4" transform="translate(137.0951 143.87898) rotate(-84.2942)"><tspan x="0" y="0"> </tspan></text><text class="cls-4" transform="translate(137.3495 141.32819) rotate(-82.34977)"><tspan x="0" y="0"> </tspan></text><text class="cls-4" transform="translate(137.6869 138.80134) rotate(-80.40926)"><tspan x="0" y="0"> </tspan></text><text class="cls-4" transform="translate(138.11659 136.25495) rotate(-78.43884)"><tspan x="0" y="0"> </tspan></text><text class="cls-4" transform="translate(138.6244 133.76032) rotate(-76.49164)"><tspan x="0" y="0"> </tspan></text><text class="cls-4" transform="translate(139.22694 131.25007) rotate(-74.51586)"><tspan x="0" y="0"> </tspan></text><text class="cls-4" transform="translate(139.90565 128.79499) rotate(-72.56464)"><tspan x="0" y="0"> </tspan></text><text class="cls-4" transform="translate(140.67909 126.33015) rotate(-70.58552)"><tspan x="0" y="0"> </tspan></text><text class="cls-4" transform="translate(141.38661 123.95368) rotate(-66.31323)"><tspan x="0" y="0">N</tspan></text><text class="cls-4" transform="translate(144.89589 116.06648) rotate(-60.5963)"><tspan x="0" y="0">o</tspan></text><text class="cls-4" transform="translate(147.95546 110.65339) rotate(-56.3156)"><tspan x="0" y="0">v</tspan></text><text class="cls-4" transform="translate(150.92909 106.25105) rotate(-53.34846)"><tspan x="0" y="0"> </tspan></text><text class="cls-4" transform="translate(152.46669 104.18366) rotate(-51.39879)"><tspan x="0" y="0"> </tspan></text><text class="cls-4" transform="translate(154.05702 102.18903) rotate(-49.4698)"><tspan x="0" y="0"> </tspan></text><text class="cls-4" transform="translate(155.72792 100.23249) rotate(-47.52545)"><tspan x="0" y="0"> </tspan></text><text class="cls-4" transform="translate(157.44813 98.35065) rotate(-45.60005)"><tspan x="0" y="0"> </tspan></text><text class="cls-4" transform="translate(159.24745 96.51179) rotate(-43.65728)"><tspan x="0" y="0"> </tspan></text><text class="cls-4" transform="translate(161.1078 94.73493) rotate(-41.71443)"><tspan x="0" y="0"> </tspan></text><text class="cls-4" transform="translate(163.02821 93.02204) rotate(-39.76995)"><tspan x="0" y="0"> </tspan></text><text class="cls-4" transform="translate(164.98915 91.38825) rotate(-37.8399)"><tspan x="0" y="0"> </tspan></text><text class="cls-4" transform="translate(166.94911 89.79255) rotate(-34.50963)"><tspan x="0" y="0">D</tspan></text><text class="cls-4" transform="translate(172.05848 86.27985) rotate(-29.953)"><tspan x="0" y="0">e</tspan></text><text class="cls-4" transform="translate(177.14247 83.37653) rotate(-26.10554)"><tspan x="0" y="0">z</tspan></text></g></svg>